# xmcd
#
# Track frame offsets: 
#        150
#        14266
#        23275
#        33487
#        45642
#        57234
#        71456
#        83269
#        95669
#        109020
#        119537
#        128577
#        139407
#        154024
#        169263
#        181685
#        194502
#        218739
#        230346
#        249823
#        263413
#        280715
#        302130
#        316892
#        334158
#
# Disc length: 4667 seconds
#
# Revision: 2
# Processed by: cddbd v1.5.2PL0 Copyright (c) Steve Scherf et al.
# Submitted via: ExactAudioCopy v1.3
#
DISCID=45123919
DTITLE=Dr. Feelgood - Taking No Prisoners CD1
DYEAR=2013
DGENRE=R&B
TTITLE0=Ninety-Nine And A Half (Won't Do)
TTITLE1=She's A Windup
TTITLE2=I Thought I Had It Made
TTITLE3=I Don't Wanna Know
TTITLE4=That's It, I Quit
TTITLE5=As Long As The Price Is Right
TTITLE6=Hi-Rise
TTITLE7=My Buddy Buddy Friend
TTITLE8=Baby Jane
TTITLE9=The Blues Had A Baby (And They Named It Rock 'N' Roll)
TTITLE10=Looking Back
TTITLE11=60 Minutes Of Your Love
TTITLE12=Down At The Doctors
TTITLE13=Every Kind Of Vice
TTITLE14=Things Get Better
TTITLE15=Milk And Alcohol
TTITLE16=Night Time
TTITLE17=Let's Have A Party
TTITLE18=Take A Tip
TTITLE19=It Wasn't Me
TTITLE20=Greaseball
TTITLE21=Sugar Shaker
TTITLE22=As Long As The Price Is Right [Second Version]
TTITLE23=Down At The (Other) Doctors
TTITLE24=Riding On The L and N [Demo Version]
EXTD=
EXTT0=
EXTT1=
EXTT2=
EXTT3=
EXTT4=
EXTT5=
EXTT6=
EXTT7=
EXTT8=
EXTT9=
EXTT10=
EXTT11=
EXTT12=
EXTT13=
EXTT14=
EXTT15=
EXTT16=
EXTT17=
EXTT18=
EXTT19=
EXTT20=
EXTT21=
EXTT22=
EXTT23=
EXTT24=
PLAYORDER=
